<svg width="64" height="64" viewBox="0 0 64 64" fill="none" xmlns="http://www.w3.org/2000/svg">
  <defs>
    <linearGradient id="sproutMarkLime" x1="20" y1="14" x2="45" y2="52" gradientUnits="userSpaceOnUse">
      <stop stop-color="#E7FF76"/>
      <stop offset="1" stop-color="#7BD75B"/>
    </linearGradient>
  </defs>
  <circle cx="32" cy="32" r="30" fill="#080D16"/>
  <circle cx="32" cy="32" r="27" stroke="url(#sproutMarkLime)" stroke-width="2.7"/>
  <path
    d="M32.25 53V36.3"
    stroke="url(#sproutMarkLime)"
    stroke-width="1.8"
    stroke-linecap="round"
  />
  <path
    d="M32.25 36.3C31 26.8 24.2 18.9 14.35 20.65C15.8 33.6 22.8 39.35 26.85 39.35C28.05 39.35 28.95 39.25 29.35 39.15"
    stroke="url(#sproutMarkLime)"
    stroke-width="1.8"
    stroke-linecap="butt"
    stroke-linejoin="round"
  />
  <path d="M29.05 38.45L30.22 39.18L29 39.9Z" fill="url(#sproutMarkLime)"/>
  <path
    d="M32.25 36.3C34.45 28.05 41.1 24.8 46.65 25.85C46.35 33.75 41.55 37.85 36.35 38.65C35.35 38.8 34.95 39.05 34.72 39.25"
    stroke="url(#sproutMarkLime)"
    stroke-width="1.8"
    stroke-linecap="butt"
    stroke-linejoin="round"
  />
  <path d="M35.32 38.45L34.28 39.68L35.64 39.74Z" fill="url(#sproutMarkLime)"/>
</svg>
