<svg width="24" height="24" viewBox="0 0 24 24" fill="none" xmlns="http://www.w3.org/2000/svg">
  <path fill="#E8F2FF" d="M11.18 2.4h.7c.4 0 .72.32.72.72v15.12c0 .1 0 .2-.02.29-.12 1.37-1.32 2.62-3.13 3.32-2.47.95-4.97.41-5.58-1.22-.61-1.63.89-3.72 3.36-4.67 1.25-.48 2.5-.58 3.49-.37V3.12c0-.4.32-.72.72-.72Z" />
  <path fill="#E8F2FF" d="M12.6 2.78c0-.22.27-.33.42-.17 1.08 1.13 2.18 2.12 3.06 3.17 2.45 2.91 2.91 6.37 1.39 10.38-.2.54-.48 1.13-.82 1.78-.09.16-.33.08-.3-.1.58-4.66-.64-7.85-3.66-9.56-.06-.04-.09-.1-.09-.17V2.78Z" />
</svg>
