<svg width="24" height="24" viewBox="0 0 24 24" fill="none" xmlns="http://www.w3.org/2000/svg">
  <defs>
    <linearGradient id="patchShell" x1="5" y1="4" x2="19" y2="21" gradientUnits="userSpaceOnUse">
      <stop stop-color="#50677A"/>
      <stop offset="0.42" stop-color="#203242"/>
      <stop offset="1" stop-color="#0A1018"/>
    </linearGradient>
    <linearGradient id="patchPlate" x1="6" y1="5" x2="18.5" y2="19" gradientUnits="userSpaceOnUse">
      <stop stop-color="#7D909D"/>
      <stop offset="0.34" stop-color="#334657"/>
      <stop offset="1" stop-color="#111A25"/>
    </linearGradient>
    <linearGradient id="patchSignal" x1="6" y1="6" x2="18" y2="19" gradientUnits="userSpaceOnUse">
      <stop stop-color="#DFFF75"/>
      <stop offset="1" stop-color="#73D35B"/>
    </linearGradient>
    <linearGradient id="patchTrace" x1="6" y1="18" x2="19" y2="6" gradientUnits="userSpaceOnUse">
      <stop stop-color="#6ACBFF"/>
      <stop offset="1" stop-color="#DFFF75"/>
    </linearGradient>
  </defs>
  <path
    d="M12 2.65C14.55 2.65 21.35 9.45 21.35 12C21.35 14.55 14.55 21.35 12 21.35C9.45 21.35 2.65 14.55 2.65 12C2.65 9.45 9.45 2.65 12 2.65Z"
    fill="url(#patchShell)"
  />
  <path
    d="M12 3.85C14.2 3.85 20.15 9.8 20.15 12C20.15 14.2 14.2 20.15 12 20.15C9.8 20.15 3.85 14.2 3.85 12C3.85 9.8 9.8 3.85 12 3.85Z"
    stroke="#93A8B7"
    stroke-opacity="0.5"
    stroke-width="0.85"
  />
  <path
    d="M6.34 6.05C7.88 5.18 10.11 5.46 11.26 6.83V11.25H6.77C5.42 10.1 5.24 7.58 6.34 6.05Z"
    fill="url(#patchPlate)"
    stroke="#AFC2CB"
    stroke-opacity="0.32"
    stroke-width="0.55"
  />
  <path
    d="M12.76 6.83C13.91 5.46 16.12 5.18 17.66 6.05C18.76 7.58 18.58 10.1 17.23 11.25H12.76V6.83Z"
    fill="url(#patchPlate)"
    stroke="#AFC2CB"
    stroke-opacity="0.32"
    stroke-width="0.55"
  />
  <path
    d="M6.77 12.76H11.26V17.17C10.11 18.54 7.88 18.82 6.34 17.95C5.24 16.42 5.42 13.9 6.77 12.76Z"
    fill="url(#patchPlate)"
    stroke="#AFC2CB"
    stroke-opacity="0.32"
    stroke-width="0.55"
  />
  <path
    d="M12.76 12.76H17.23C18.58 13.9 18.76 16.42 17.66 17.95C16.12 18.82 13.91 18.54 12.76 17.17V12.76Z"
    fill="url(#patchPlate)"
    stroke="#AFC2CB"
    stroke-opacity="0.32"
    stroke-width="0.55"
  />
  <path
    d="M7.45 8.05C9.28 8.48 10.54 9.72 11.36 11.32M16.55 8.05C14.72 8.48 13.46 9.72 12.64 11.32M7.45 15.95C9.28 15.52 10.54 14.28 11.36 12.68M16.55 15.95C14.72 15.52 13.46 14.28 12.64 12.68"
    stroke="url(#patchTrace)"
    stroke-width="0.92"
    stroke-linecap="round"
    stroke-opacity="0.9"
  />
  <circle cx="12" cy="12" r="1.5" fill="#0B121B" stroke="url(#patchSignal)" stroke-width="0.95" />
  <circle cx="7.45" cy="8.05" r="0.72" fill="url(#patchSignal)" />
  <circle cx="16.55" cy="8.05" r="0.72" fill="#8FDFFF" />
  <circle cx="7.45" cy="15.95" r="0.72" fill="#8FDFFF" />
  <circle cx="16.55" cy="15.95" r="0.72" fill="url(#patchSignal)" />
</svg>
